%TF.GenerationSoftware,KiCad,Pcbnew,10.0.0*%
%TF.CreationDate,2026-04-28T15:57:44+01:00*%
%TF.ProjectId,pendo,70656e64-6f2e-46b6-9963-61645f706362,rev?*%
%TF.SameCoordinates,Original*%
%TF.FileFunction,Profile,NP*%
%FSLAX46Y46*%
G04 Gerber Fmt 4.6, Leading zero omitted, Abs format (unit mm)*
G04 Created by KiCad (PCBNEW 10.0.0) date 2026-04-28 15:57:44*
%MOMM*%
%LPD*%
G01*
G04 APERTURE LIST*
%TA.AperFunction,Profile*%
%ADD10C,0.100000*%
%TD*%
G04 APERTURE END LIST*
D10*
X91500000Y-71000000D02*
X91500000Y-138000000D01*
X91500000Y-138000000D02*
X111500000Y-138000000D01*
X98000000Y-88000000D02*
G75*
G02*
X95000000Y-88000000I-1500000J0D01*
G01*
X95000000Y-88000000D02*
G75*
G02*
X98000000Y-88000000I1500000J0D01*
G01*
X98000000Y-128000000D02*
G75*
G02*
X95000000Y-128000000I-1500000J0D01*
G01*
X95000000Y-128000000D02*
G75*
G02*
X98000000Y-128000000I1500000J0D01*
G01*
X111500000Y-123000000D02*
X211500000Y-123000000D01*
X111500000Y-138000000D02*
X111500000Y-123000000D01*
X141500000Y-81000000D02*
X181500000Y-81000000D01*
X141500000Y-115000000D02*
X141500000Y-81000000D01*
X181500000Y-81000000D02*
X181500000Y-115000000D01*
X181500000Y-115000000D02*
X141500000Y-115000000D01*
X211500000Y-123000000D02*
X211500000Y-138000000D01*
X211500000Y-138000000D02*
X231500000Y-138000000D01*
X228000000Y-88000000D02*
G75*
G02*
X225000000Y-88000000I-1500000J0D01*
G01*
X225000000Y-88000000D02*
G75*
G02*
X228000000Y-88000000I1500000J0D01*
G01*
X228000000Y-128000000D02*
G75*
G02*
X225000000Y-128000000I-1500000J0D01*
G01*
X225000000Y-128000000D02*
G75*
G02*
X228000000Y-128000000I1500000J0D01*
G01*
X231500000Y-71000000D02*
X91500000Y-71000000D01*
X231500000Y-138000000D02*
X231500000Y-71000000D01*
M02*
