%TF.GenerationSoftware,KiCad,Pcbnew,10.0.0*%
%TF.CreationDate,2026-04-28T15:57:44+01:00*%
%TF.ProjectId,pendo,70656e64-6f2e-46b6-9963-61645f706362,rev?*%
%TF.SameCoordinates,Original*%
%TF.FileFunction,Soldermask,Top*%
%TF.FilePolarity,Negative*%
%FSLAX46Y46*%
G04 Gerber Fmt 4.6, Leading zero omitted, Abs format (unit mm)*
G04 Created by KiCad (PCBNEW 10.0.0) date 2026-04-28 15:57:44*
%MOMM*%
%LPD*%
G01*
G04 APERTURE LIST*
G04 Aperture macros list*
%AMRoundRect*
0 Rectangle with rounded corners*
0 $1 Rounding radius*
0 $2 $3 $4 $5 $6 $7 $8 $9 X,Y pos of 4 corners*
0 Add a 4 corners polygon primitive as box body*
4,1,4,$2,$3,$4,$5,$6,$7,$8,$9,$2,$3,0*
0 Add four circle primitives for the rounded corners*
1,1,$1+$1,$2,$3*
1,1,$1+$1,$4,$5*
1,1,$1+$1,$6,$7*
1,1,$1+$1,$8,$9*
0 Add four rect primitives between the rounded corners*
20,1,$1+$1,$2,$3,$4,$5,0*
20,1,$1+$1,$4,$5,$6,$7,0*
20,1,$1+$1,$6,$7,$8,$9,0*
20,1,$1+$1,$8,$9,$2,$3,0*%
%AMFreePoly0*
4,1,17,0.750000,-1.125000,-0.750000,-1.125000,-0.750001,-0.824999,-0.375001,-0.824999,-0.375001,-0.474999,-0.750001,-0.474999,-0.750001,-0.174999,-0.375001,-0.174999,-0.375001,0.175001,-0.750001,0.175001,-0.750001,0.475001,-0.375001,0.475001,-0.375001,0.825001,-0.750001,0.825001,-0.750000,1.125000,0.750000,1.125000,0.750000,-1.125000,0.750000,-1.125000,$1*%
%AMFreePoly1*
4,1,17,0.750001,0.825001,0.375001,0.825001,0.375001,0.475001,0.750001,0.475001,0.750001,0.175001,0.375001,0.175001,0.375001,-0.174999,0.750001,-0.174999,0.750001,-0.474999,0.375001,-0.474999,0.375001,-0.824999,0.750001,-0.824999,0.750000,-1.125000,-0.750000,-1.125000,-0.750000,1.125000,0.750000,1.125000,0.750001,0.825001,0.750001,0.825001,$1*%
G04 Aperture macros list end*
%ADD10RoundRect,0.140000X-0.170000X0.140000X-0.170000X-0.140000X0.170000X-0.140000X0.170000X0.140000X0*%
%ADD11RoundRect,0.140000X-0.140000X-0.170000X0.140000X-0.170000X0.140000X0.170000X-0.140000X0.170000X0*%
%ADD12RoundRect,0.140000X0.170000X-0.140000X0.170000X0.140000X-0.170000X0.140000X-0.170000X-0.140000X0*%
%ADD13R,0.203200X0.660400*%
%ADD14R,0.660400X0.203200*%
%ADD15R,1.600200X1.752600*%
%ADD16RoundRect,0.140000X0.219203X0.021213X0.021213X0.219203X-0.219203X-0.021213X-0.021213X-0.219203X0*%
%ADD17RoundRect,0.218750X0.218750X0.256250X-0.218750X0.256250X-0.218750X-0.256250X0.218750X-0.256250X0*%
%ADD18RoundRect,0.250000X-0.550000X1.500000X-0.550000X-1.500000X0.550000X-1.500000X0.550000X1.500000X0*%
%ADD19R,1.700000X1.700000*%
%ADD20C,1.700000*%
%ADD21RoundRect,0.062500X0.062500X-0.187500X0.062500X0.187500X-0.062500X0.187500X-0.062500X-0.187500X0*%
%ADD22R,1.600000X0.900000*%
%ADD23RoundRect,0.250000X0.625000X-0.312500X0.625000X0.312500X-0.625000X0.312500X-0.625000X-0.312500X0*%
%ADD24RoundRect,0.140000X0.140000X0.170000X-0.140000X0.170000X-0.140000X-0.170000X0.140000X-0.170000X0*%
%ADD25RoundRect,0.250000X0.512652X0.159099X0.159099X0.512652X-0.512652X-0.159099X-0.159099X-0.512652X0*%
%ADD26R,1.500000X0.900000*%
%ADD27C,0.600000*%
%ADD28R,2.900000X2.900000*%
%ADD29RoundRect,0.218750X-0.218750X-0.256250X0.218750X-0.256250X0.218750X0.256250X-0.218750X0.256250X0*%
%ADD30RoundRect,0.140000X-0.021213X0.219203X-0.219203X0.021213X0.021213X-0.219203X0.219203X-0.021213X0*%
%ADD31RoundRect,0.135000X-0.226274X-0.035355X-0.035355X-0.226274X0.226274X0.035355X0.035355X0.226274X0*%
%ADD32R,0.300000X0.700000*%
%ADD33R,0.400000X1.000000*%
%ADD34FreePoly0,270.000000*%
%ADD35FreePoly1,270.000000*%
%ADD36R,0.700000X0.300000*%
%ADD37R,1.000000X0.400000*%
%ADD38RoundRect,0.200000X-0.200000X-0.275000X0.200000X-0.275000X0.200000X0.275000X-0.200000X0.275000X0*%
%ADD39RoundRect,0.225000X-0.250000X0.225000X-0.250000X-0.225000X0.250000X-0.225000X0.250000X0.225000X0*%
%ADD40RoundRect,0.135000X0.226274X0.035355X0.035355X0.226274X-0.226274X-0.035355X-0.035355X-0.226274X0*%
%ADD41RoundRect,0.250000X-1.500000X-0.550000X1.500000X-0.550000X1.500000X0.550000X-1.500000X0.550000X0*%
%ADD42RoundRect,0.150000X0.512500X0.150000X-0.512500X0.150000X-0.512500X-0.150000X0.512500X-0.150000X0*%
%ADD43RoundRect,0.135000X0.185000X-0.135000X0.185000X0.135000X-0.185000X0.135000X-0.185000X-0.135000X0*%
%ADD44RoundRect,0.135000X-0.185000X0.135000X-0.185000X-0.135000X0.185000X-0.135000X0.185000X0.135000X0*%
%ADD45R,2.400000X0.740000*%
%ADD46RoundRect,0.140000X-0.219203X-0.021213X-0.021213X-0.219203X0.219203X0.021213X0.021213X0.219203X0*%
%ADD47C,1.200000*%
%ADD48RoundRect,0.250000X0.600000X0.725000X-0.600000X0.725000X-0.600000X-0.725000X0.600000X-0.725000X0*%
%ADD49O,1.700000X1.950000*%
%ADD50RoundRect,0.200000X0.200000X0.275000X-0.200000X0.275000X-0.200000X-0.275000X0.200000X-0.275000X0*%
%ADD51O,4.000000X8.000000*%
%ADD52RoundRect,0.200000X-0.335876X-0.053033X-0.053033X-0.335876X0.335876X0.053033X0.053033X0.335876X0*%
%ADD53RoundRect,0.225000X0.225000X0.250000X-0.225000X0.250000X-0.225000X-0.250000X0.225000X-0.250000X0*%
%ADD54RoundRect,0.250000X0.475000X-0.250000X0.475000X0.250000X-0.475000X0.250000X-0.475000X-0.250000X0*%
%ADD55RoundRect,0.250000X-0.625000X0.312500X-0.625000X-0.312500X0.625000X-0.312500X0.625000X0.312500X0*%
%ADD56RoundRect,0.250001X-1.149999X-1.149999X1.149999X-1.149999X1.149999X1.149999X-1.149999X1.149999X0*%
%ADD57C,2.800000*%
%ADD58RoundRect,0.140000X0.021213X-0.219203X0.219203X-0.021213X-0.021213X0.219203X-0.219203X0.021213X0*%
%ADD59RoundRect,0.075000X0.441942X0.548008X-0.548008X-0.441942X-0.441942X-0.548008X0.548008X0.441942X0*%
%ADD60RoundRect,0.075000X-0.441942X0.548008X-0.548008X0.441942X0.441942X-0.548008X0.548008X-0.441942X0*%
%ADD61C,2.000000*%
%ADD62RoundRect,0.250000X-0.600000X-0.600000X0.600000X-0.600000X0.600000X0.600000X-0.600000X0.600000X0*%
%ADD63RoundRect,0.200000X0.275000X-0.200000X0.275000X0.200000X-0.275000X0.200000X-0.275000X-0.200000X0*%
%ADD64RoundRect,0.250000X0.650000X-0.325000X0.650000X0.325000X-0.650000X0.325000X-0.650000X-0.325000X0*%
G04 APERTURE END LIST*
D10*
%TO.C,C25*%
X139524000Y-84796000D03*
X139524000Y-85756000D03*
%TD*%
D11*
%TO.C,C24*%
X138724000Y-81576000D03*
X139684000Y-81576000D03*
%TD*%
D12*
%TO.C,C23*%
X140000000Y-83480000D03*
X140000000Y-82520000D03*
%TD*%
D13*
%TO.C,U3*%
X135799999Y-85500000D03*
X136200001Y-85500000D03*
X136600000Y-85500000D03*
X137000000Y-85500000D03*
X137399999Y-85500000D03*
X137800001Y-85500000D03*
D14*
X138324000Y-84976001D03*
X138324000Y-84575999D03*
X138324000Y-84176000D03*
X138324000Y-83776000D03*
X138324000Y-83376001D03*
X138324000Y-82975999D03*
D13*
X137800001Y-82452000D03*
X137399999Y-82452000D03*
X137000000Y-82452000D03*
X136600000Y-82452000D03*
X136200001Y-82452000D03*
X135799999Y-82452000D03*
D14*
X135276000Y-82975999D03*
X135276000Y-83376001D03*
X135276000Y-83776000D03*
X135276000Y-84176000D03*
X135276000Y-84575999D03*
X135276000Y-84976001D03*
D15*
X136800000Y-83976000D03*
%TD*%
D16*
%TO.C,C20*%
X121839411Y-91839411D03*
X121160589Y-91160589D03*
%TD*%
D17*
%TO.C,D3*%
X194975000Y-116000000D03*
X193400000Y-116000000D03*
%TD*%
D18*
%TO.C,C18*%
X109000000Y-82500000D03*
X109000000Y-88100000D03*
%TD*%
D19*
%TO.C,I2C*%
X152040000Y-119000000D03*
D20*
X149500000Y-119000000D03*
X146960000Y-119000000D03*
X144420000Y-119000000D03*
%TD*%
D21*
%TO.C,U10*%
X105750000Y-81050000D03*
X106250000Y-81050000D03*
X106750000Y-81050000D03*
X107250000Y-81050000D03*
X107250000Y-79150000D03*
X106750000Y-79150000D03*
X106250000Y-79150000D03*
X105750000Y-79150000D03*
D22*
X106500000Y-80100000D03*
%TD*%
D23*
%TO.C,R15*%
X197000000Y-118925000D03*
X197000000Y-116000000D03*
%TD*%
D21*
%TO.C,U11*%
X217000000Y-80950000D03*
X217500000Y-80950000D03*
X218000000Y-80950000D03*
X218500000Y-80950000D03*
X218500000Y-79050000D03*
X218000000Y-79050000D03*
X217500000Y-79050000D03*
X217000000Y-79050000D03*
D22*
X217750000Y-80000000D03*
%TD*%
D24*
%TO.C,C10*%
X109460000Y-79500000D03*
X108500000Y-79500000D03*
%TD*%
D19*
%TO.C,I2C*%
X179040000Y-119000000D03*
D20*
X176500000Y-119000000D03*
X173960000Y-119000000D03*
X171420000Y-119000000D03*
%TD*%
D25*
%TO.C,C19*%
X119171751Y-93171751D03*
X117828249Y-91828249D03*
%TD*%
D24*
%TO.C,C11*%
X220460000Y-79000000D03*
X219500000Y-79000000D03*
%TD*%
D26*
%TO.C,U4*%
X227210000Y-109500000D03*
X227210000Y-108000000D03*
X227210000Y-106500000D03*
X227210000Y-105000000D03*
X227210000Y-103500000D03*
X227210000Y-102000000D03*
X227210000Y-100500000D03*
X227210000Y-99000000D03*
X227210000Y-97500000D03*
X209710000Y-97500000D03*
X209710000Y-99000000D03*
X209710000Y-100500000D03*
X209710000Y-102000000D03*
X209710000Y-103500000D03*
X209710000Y-105000000D03*
X209710000Y-106500000D03*
X209710000Y-108000000D03*
X209710000Y-109500000D03*
D27*
X218600000Y-103850000D03*
X218600000Y-102750000D03*
X218050000Y-104400000D03*
X218050000Y-103300000D03*
X218050000Y-102200000D03*
X217500000Y-103850000D03*
D28*
X217500000Y-103300000D03*
D27*
X217500000Y-102750000D03*
X216950000Y-104400000D03*
X216950000Y-103300000D03*
X216950000Y-102200000D03*
X216400000Y-103850000D03*
X216400000Y-102750000D03*
%TD*%
D29*
%TO.C,D2*%
X174212500Y-75000000D03*
X175787500Y-75000000D03*
%TD*%
D16*
%TO.C,C22*%
X121239411Y-92639411D03*
X120560589Y-91960589D03*
%TD*%
D30*
%TO.C,C2*%
X136439411Y-94960589D03*
X135760589Y-95639411D03*
%TD*%
D31*
%TO.C,R8*%
X120178752Y-101678752D03*
X120900000Y-102400000D03*
%TD*%
D32*
%TO.C,U9*%
X188900001Y-76450002D03*
D33*
X188050000Y-76600002D03*
D34*
X186074999Y-76850002D03*
D35*
X186074999Y-79750000D03*
D33*
X188050000Y-80000000D03*
D32*
X188900001Y-80150000D03*
D36*
X189099998Y-79150002D03*
D37*
X188949998Y-78300001D03*
D36*
X189099998Y-77450000D03*
%TD*%
D38*
%TO.C,R2*%
X213675000Y-82000000D03*
X215325000Y-82000000D03*
%TD*%
D39*
%TO.C,C12*%
X132500000Y-79925000D03*
X132500000Y-81475000D03*
%TD*%
D40*
%TO.C,R11*%
X134500000Y-101500000D03*
X133778752Y-100778752D03*
%TD*%
D41*
%TO.C,C15*%
X193100000Y-75000000D03*
X198500000Y-75000000D03*
%TD*%
D42*
%TO.C,U5*%
X136500000Y-79700000D03*
X136500000Y-78750000D03*
X136500000Y-77800000D03*
X134225000Y-77800000D03*
X134225000Y-79700000D03*
%TD*%
D10*
%TO.C,C8*%
X136500000Y-112520000D03*
X136500000Y-113480000D03*
%TD*%
D43*
%TO.C,R7*%
X109000000Y-102210000D03*
X109000000Y-101190000D03*
%TD*%
D25*
%TO.C,C21*%
X122671751Y-90171751D03*
X121328249Y-88828249D03*
%TD*%
D44*
%TO.C,R12*%
X229500000Y-105480000D03*
X229500000Y-106500000D03*
%TD*%
D40*
%TO.C,R10*%
X135360624Y-100860624D03*
X134639376Y-100139376D03*
%TD*%
D45*
%TO.C,JTAG*%
X117500000Y-110000000D03*
X121400000Y-110000000D03*
X117500000Y-111270000D03*
X121400000Y-111270000D03*
X117500000Y-112540000D03*
X121400000Y-112540000D03*
X117500000Y-113810000D03*
X121400000Y-113810000D03*
X117500000Y-115080000D03*
X121400000Y-115080000D03*
%TD*%
D30*
%TO.C,C3*%
X129439411Y-87960589D03*
X128760589Y-88639411D03*
%TD*%
D46*
%TO.C,C4*%
X119910589Y-94560589D03*
X120589411Y-95239411D03*
%TD*%
D19*
%TO.C,I2C*%
X165540000Y-119000000D03*
D20*
X163000000Y-119000000D03*
X160460000Y-119000000D03*
X157920000Y-119000000D03*
%TD*%
D17*
%TO.C,D1*%
X195000000Y-114000000D03*
X193425000Y-114000000D03*
%TD*%
D47*
%TO.C,M2*%
X219850000Y-73500000D03*
D48*
X218250000Y-75500000D03*
D49*
X215750000Y-75500000D03*
X213250000Y-75500000D03*
X210750000Y-75500000D03*
X208250000Y-75500000D03*
X205750000Y-75500000D03*
%TD*%
D50*
%TO.C,R5*%
X120325000Y-87000000D03*
X118675000Y-87000000D03*
%TD*%
D10*
%TO.C,C5*%
X229500000Y-108040000D03*
X229500000Y-109000000D03*
%TD*%
D51*
%TO.C,SW2*%
X187500000Y-93500000D03*
X194600000Y-93500000D03*
%TD*%
D47*
%TO.C,M1*%
X109100000Y-73500000D03*
D48*
X107500000Y-75500000D03*
D49*
X105000000Y-75500000D03*
X102500000Y-75500000D03*
X100000000Y-75500000D03*
X97500000Y-75500000D03*
X95000000Y-75500000D03*
%TD*%
D52*
%TO.C,R3*%
X122333274Y-86333274D03*
X123500000Y-87500000D03*
%TD*%
D53*
%TO.C,C7*%
X128000000Y-84500000D03*
X126450000Y-84500000D03*
%TD*%
D54*
%TO.C,C14*%
X188000000Y-74450000D03*
X188000000Y-72550000D03*
%TD*%
D19*
%TO.C,J10*%
X106000000Y-124160000D03*
D20*
X106000000Y-121620000D03*
X106000000Y-119080000D03*
X106000000Y-116540000D03*
X106000000Y-114000000D03*
X106000000Y-111460000D03*
%TD*%
D50*
%TO.C,FB1*%
X117825000Y-94745000D03*
X116175000Y-94745000D03*
%TD*%
D41*
%TO.C,C9*%
X221900000Y-81800000D03*
X227500000Y-81800000D03*
%TD*%
D55*
%TO.C,R13*%
X197000000Y-111000000D03*
X197000000Y-113925000D03*
%TD*%
D38*
%TO.C,R6*%
X182675000Y-82000000D03*
X184325000Y-82000000D03*
%TD*%
D56*
%TO.C,J1*%
X187500000Y-106967500D03*
D57*
X192500000Y-106967500D03*
%TD*%
D38*
%TO.C,R1*%
X102175000Y-82000000D03*
X103825000Y-82000000D03*
%TD*%
D23*
%TO.C,R14*%
X172000000Y-77962500D03*
X172000000Y-75037500D03*
%TD*%
D58*
%TO.C,C6*%
X126560589Y-104039411D03*
X127239411Y-103360589D03*
%TD*%
D59*
%TO.C,U1*%
X134664481Y-94638819D03*
X134310928Y-94285266D03*
X133957375Y-93931713D03*
X133603821Y-93578159D03*
X133250268Y-93224606D03*
X132896714Y-92871052D03*
X132543161Y-92517499D03*
X132189608Y-92163946D03*
X131836054Y-91810392D03*
X131482501Y-91456839D03*
X131128948Y-91103286D03*
X130775394Y-90749732D03*
X130421841Y-90396179D03*
X130068287Y-90042625D03*
X129714734Y-89689072D03*
X129361181Y-89335519D03*
D60*
X126638819Y-89335519D03*
X126285266Y-89689072D03*
X125931713Y-90042625D03*
X125578159Y-90396179D03*
X125224606Y-90749732D03*
X124871052Y-91103286D03*
X124517499Y-91456839D03*
X124163946Y-91810392D03*
X123810392Y-92163946D03*
X123456839Y-92517499D03*
X123103286Y-92871052D03*
X122749732Y-93224606D03*
X122396179Y-93578159D03*
X122042625Y-93931713D03*
X121689072Y-94285266D03*
X121335519Y-94638819D03*
D59*
X121335519Y-97361181D03*
X121689072Y-97714734D03*
X122042625Y-98068287D03*
X122396179Y-98421841D03*
X122749732Y-98775394D03*
X123103286Y-99128948D03*
X123456839Y-99482501D03*
X123810392Y-99836054D03*
X124163946Y-100189608D03*
X124517499Y-100543161D03*
X124871052Y-100896714D03*
X125224606Y-101250268D03*
X125578159Y-101603821D03*
X125931713Y-101957375D03*
X126285266Y-102310928D03*
X126638819Y-102664481D03*
D60*
X129361181Y-102664481D03*
X129714734Y-102310928D03*
X130068287Y-101957375D03*
X130421841Y-101603821D03*
X130775394Y-101250268D03*
X131128948Y-100896714D03*
X131482501Y-100543161D03*
X131836054Y-100189608D03*
X132189608Y-99836054D03*
X132543161Y-99482501D03*
X132896714Y-99128948D03*
X133250268Y-98775394D03*
X133603821Y-98421841D03*
X133957375Y-98068287D03*
X134310928Y-97714734D03*
X134664481Y-97361181D03*
%TD*%
D61*
%TO.C,RESET*%
X126750000Y-109750000D03*
X133250000Y-109750000D03*
X126750000Y-114250000D03*
X133250000Y-114250000D03*
%TD*%
D16*
%TO.C,C1*%
X136339411Y-99178822D03*
X135660589Y-98500000D03*
%TD*%
D62*
%TO.C,J7*%
X96460000Y-96380000D03*
D20*
X99000000Y-96380000D03*
X96460000Y-98920000D03*
X99000000Y-98920000D03*
X96460000Y-101460000D03*
X99000000Y-101460000D03*
X96460000Y-104000000D03*
X99000000Y-104000000D03*
X96460000Y-106540000D03*
X99000000Y-106540000D03*
X96460000Y-109080000D03*
X99000000Y-109080000D03*
X96460000Y-111620000D03*
X99000000Y-111620000D03*
X96460000Y-114160000D03*
X99000000Y-114160000D03*
X96460000Y-116700000D03*
X99000000Y-116700000D03*
X96460000Y-119240000D03*
X99000000Y-119240000D03*
%TD*%
D63*
%TO.C,R4*%
X182500000Y-80500000D03*
X182500000Y-78850000D03*
%TD*%
D40*
%TO.C,R9*%
X122360624Y-103860624D03*
X121639376Y-103139376D03*
%TD*%
D64*
%TO.C,C13*%
X138700000Y-78675000D03*
X138700000Y-75725000D03*
%TD*%
M02*
