M48
; DRILL file KiCad 10.0.0 date 2026-04-28T15:57:49
; FORMAT={-:-/ absolute / metric / decimal}
; #@! TF.CreationDate,2026-04-28T15:57:49+01:00
; #@! TF.GenerationSoftware,Kicad,Pcbnew,10.0.0
; #@! TF.FileFunction,MixedPlating,1,4
FMAT,2
METRIC
; #@! TA.AperFunction,Plated,PTH,ViaDrill
T1C0.200
; #@! TA.AperFunction,Plated,PTH,ComponentDrill
T2C0.200
; #@! TA.AperFunction,Plated,PTH,ViaDrill
T3C0.300
; #@! TA.AperFunction,Plated,PTH,ComponentDrill
T4C0.950
; #@! TA.AperFunction,Plated,PTH,ComponentDrill
T5C1.000
; #@! TA.AperFunction,Plated,PTH,ComponentDrill
T6C1.100
; #@! TA.AperFunction,Plated,PTH,ComponentDrill
T7C1.300
; #@! TA.AperFunction,NonPlated,NPTH,ComponentDrill
T8C1.200
%
G90
G05
T1
X134.396Y-92.104
X134.5Y-101.5
X135.5Y-101.0
X136.5Y-92.0
T2
X216.4Y-102.75
X216.4Y-103.85
X216.95Y-102.2
X216.95Y-103.3
X216.95Y-104.4
X217.5Y-102.75
X217.5Y-103.85
X218.05Y-102.2
X218.05Y-103.3
X218.05Y-104.4
X218.6Y-102.75
X218.6Y-103.85
T3
X95.0Y-77.0
X98.5Y-76.5
X98.5Y-91.5
X99.0Y-91.0
X99.5Y-90.5
X102.175Y-82.0
X103.5Y-108.2
X104.5Y-109.0
X105.82Y-79.986
X106.5Y-80.0
X107.209Y-80.0
X107.5Y-82.0
X108.0Y-110.13
X109.0Y-81.498
X109.0Y-82.5
X109.0Y-83.5
X109.0Y-87.0
X109.0Y-88.1
X109.0Y-89.0
X109.0Y-102.21
X109.5Y-79.5
X109.5Y-93.5
X115.0Y-92.5
X116.175Y-94.745
X117.5Y-92.0
X117.5Y-110.0
X117.5Y-111.27
X117.5Y-112.54
X117.5Y-115.08
X118.675Y-87.0
X119.911Y-94.561
X120.0Y-90.0
X120.179Y-101.679
X120.5Y-92.0
X120.5Y-93.139
X120.589Y-95.239
X121.239Y-91.22
X121.332Y-79.316
X121.4Y-110.0
X121.4Y-111.27
X121.5Y-88.5
X121.5Y-118.0
X121.861Y-80.045
X122.0Y-100.5
X122.361Y-103.861
X122.5Y-117.5
X122.689Y-80.201
X123.0Y-91.493
X123.5Y-95.0
X123.53Y-101.53
X124.5Y-94.0
X124.606Y-89.738
X124.896Y-87.896
X125.0Y-99.0
X125.604Y-88.604
X126.134Y-100.5
X126.268Y-99.5
X126.5Y-84.5
X126.5Y-104.0
X126.779Y-91.014
X127.0Y-99.5
X127.0Y-101.5
X127.239Y-103.265
X127.5Y-90.177
X127.5Y-94.0
X127.694Y-86.194
X128.0Y-84.5
X128.651Y-86.651
X128.761Y-88.735
X129.0Y-91.0
X129.5Y-88.0
X130.013Y-100.487
X130.5Y-95.0
X131.0Y-86.5
X131.45Y-88.257
X131.5Y-97.5
X132.0Y-89.0
X132.0Y-98.0
X132.5Y-81.5
X132.724Y-88.66
X133.0Y-95.5
X133.274Y-83.75
X133.5Y-97.0
X134.0Y-81.5
X134.0Y-84.0
X134.0Y-86.0
X135.661Y-98.5
X135.698Y-82.476
X135.761Y-95.639
X136.339Y-99.179
X136.5Y-78.75
X136.5Y-95.0
X136.5Y-113.48
X137.0Y-105.0
X137.0Y-120.0
X137.9Y-101.0
X138.0Y-106.0
X138.0Y-117.5
X138.0Y-119.5
X138.324Y-82.874
X138.7Y-75.725
X138.724Y-81.576
X138.9Y-105.5
X139.383Y-84.024
X139.524Y-84.796
X139.524Y-85.756
X139.684Y-81.576
X139.996Y-90.204
X140.0Y-82.52
X140.0Y-89.5
X140.5Y-118.5
X175.787Y-75.0
X182.529Y-114.764
X183.155Y-115.078
X184.325Y-82.0
X188.0Y-72.5
X188.95Y-78.3
X192.131Y-75.076
X193.1Y-75.0
X193.4Y-116.0
X193.425Y-114.0
X194.0Y-75.0
X196.434Y-110.973
X197.0Y-118.925
X197.5Y-75.0
X197.53Y-110.973
X198.5Y-75.0
X199.405Y-75.038
X204.0Y-85.0
X204.5Y-84.5
X206.5Y-84.0
X207.5Y-79.0
X213.675Y-82.0
X217.0Y-80.0
X217.75Y-80.0
X218.5Y-80.0
X219.0Y-81.5
X220.46Y-79.0
X221.003Y-81.801
X221.9Y-81.8
X222.857Y-81.792
X226.503Y-81.81
X227.21Y-97.5
X227.21Y-109.5
X227.5Y-81.8
X228.505Y-81.801
X229.5Y-96.0
X229.5Y-105.48
X229.5Y-109.0
T4
X95.0Y-75.5
X97.5Y-75.5
X100.0Y-75.5
X102.5Y-75.5
X105.0Y-75.5
X107.5Y-75.5
X205.75Y-75.5
X208.25Y-75.5
X210.75Y-75.5
X213.25Y-75.5
X215.75Y-75.5
X218.25Y-75.5
T5
X96.46Y-96.38
X96.46Y-98.92
X96.46Y-101.46
X96.46Y-104.0
X96.46Y-106.54
X96.46Y-109.08
X96.46Y-111.62
X96.46Y-114.16
X96.46Y-116.7
X96.46Y-119.24
X99.0Y-96.38
X99.0Y-98.92
X99.0Y-101.46
X99.0Y-104.0
X99.0Y-106.54
X99.0Y-109.08
X99.0Y-111.62
X99.0Y-114.16
X99.0Y-116.7
X99.0Y-119.24
X106.0Y-111.46
X106.0Y-114.0
X106.0Y-116.54
X106.0Y-119.08
X106.0Y-121.62
X106.0Y-124.16
X144.42Y-119.0
X146.96Y-119.0
X149.5Y-119.0
X152.04Y-119.0
X157.92Y-119.0
X160.46Y-119.0
X163.0Y-119.0
X165.54Y-119.0
X171.42Y-119.0
X173.96Y-119.0
X176.5Y-119.0
X179.04Y-119.0
T6
X126.75Y-109.75
X126.75Y-114.25
X133.25Y-109.75
X133.25Y-114.25
T7
X187.5Y-106.968
X192.5Y-106.968
T8
X109.1Y-73.5
X219.85Y-73.5
T6
G00X187.5Y-95.45
M15
G01X187.5Y-91.55
M16
G05
G00X194.6Y-95.45
M15
G01X194.6Y-91.55
M16
G05
M30
