%TF.GenerationSoftware,KiCad,Pcbnew,10.0.0*%
%TF.CreationDate,2026-04-28T15:57:44+01:00*%
%TF.ProjectId,pendo,70656e64-6f2e-46b6-9963-61645f706362,rev?*%
%TF.SameCoordinates,Original*%
%TF.FileFunction,Soldermask,Bot*%
%TF.FilePolarity,Negative*%
%FSLAX46Y46*%
G04 Gerber Fmt 4.6, Leading zero omitted, Abs format (unit mm)*
G04 Created by KiCad (PCBNEW 10.0.0) date 2026-04-28 15:57:44*
%MOMM*%
%LPD*%
G01*
G04 APERTURE LIST*
G04 Aperture macros list*
%AMRoundRect*
0 Rectangle with rounded corners*
0 $1 Rounding radius*
0 $2 $3 $4 $5 $6 $7 $8 $9 X,Y pos of 4 corners*
0 Add a 4 corners polygon primitive as box body*
4,1,4,$2,$3,$4,$5,$6,$7,$8,$9,$2,$3,0*
0 Add four circle primitives for the rounded corners*
1,1,$1+$1,$2,$3*
1,1,$1+$1,$4,$5*
1,1,$1+$1,$6,$7*
1,1,$1+$1,$8,$9*
0 Add four rect primitives between the rounded corners*
20,1,$1+$1,$2,$3,$4,$5,0*
20,1,$1+$1,$4,$5,$6,$7,0*
20,1,$1+$1,$6,$7,$8,$9,0*
20,1,$1+$1,$8,$9,$2,$3,0*%
G04 Aperture macros list end*
%ADD10R,1.700000X1.700000*%
%ADD11C,1.700000*%
%ADD12C,1.200000*%
%ADD13RoundRect,0.250000X0.600000X0.725000X-0.600000X0.725000X-0.600000X-0.725000X0.600000X-0.725000X0*%
%ADD14O,1.700000X1.950000*%
%ADD15O,4.000000X8.000000*%
%ADD16RoundRect,0.250001X-1.149999X-1.149999X1.149999X-1.149999X1.149999X1.149999X-1.149999X1.149999X0*%
%ADD17C,2.800000*%
%ADD18C,2.000000*%
%ADD19RoundRect,0.250000X-0.600000X-0.600000X0.600000X-0.600000X0.600000X0.600000X-0.600000X0.600000X0*%
G04 APERTURE END LIST*
D10*
%TO.C,I2C*%
X152040000Y-119000000D03*
D11*
X149500000Y-119000000D03*
X146960000Y-119000000D03*
X144420000Y-119000000D03*
%TD*%
D10*
%TO.C,I2C*%
X179040000Y-119000000D03*
D11*
X176500000Y-119000000D03*
X173960000Y-119000000D03*
X171420000Y-119000000D03*
%TD*%
D10*
%TO.C,I2C*%
X165540000Y-119000000D03*
D11*
X163000000Y-119000000D03*
X160460000Y-119000000D03*
X157920000Y-119000000D03*
%TD*%
D12*
%TO.C,M2*%
X219850000Y-73500000D03*
D13*
X218250000Y-75500000D03*
D14*
X215750000Y-75500000D03*
X213250000Y-75500000D03*
X210750000Y-75500000D03*
X208250000Y-75500000D03*
X205750000Y-75500000D03*
%TD*%
D15*
%TO.C,SW2*%
X187500000Y-93500000D03*
X194600000Y-93500000D03*
%TD*%
D12*
%TO.C,M1*%
X109100000Y-73500000D03*
D13*
X107500000Y-75500000D03*
D14*
X105000000Y-75500000D03*
X102500000Y-75500000D03*
X100000000Y-75500000D03*
X97500000Y-75500000D03*
X95000000Y-75500000D03*
%TD*%
D10*
%TO.C,J10*%
X106000000Y-124160000D03*
D11*
X106000000Y-121620000D03*
X106000000Y-119080000D03*
X106000000Y-116540000D03*
X106000000Y-114000000D03*
X106000000Y-111460000D03*
%TD*%
D16*
%TO.C,J1*%
X187500000Y-106967500D03*
D17*
X192500000Y-106967500D03*
%TD*%
D18*
%TO.C,RESET*%
X126750000Y-109750000D03*
X133250000Y-109750000D03*
X126750000Y-114250000D03*
X133250000Y-114250000D03*
%TD*%
D19*
%TO.C,J7*%
X96460000Y-96380000D03*
D11*
X99000000Y-96380000D03*
X96460000Y-98920000D03*
X99000000Y-98920000D03*
X96460000Y-101460000D03*
X99000000Y-101460000D03*
X96460000Y-104000000D03*
X99000000Y-104000000D03*
X96460000Y-106540000D03*
X99000000Y-106540000D03*
X96460000Y-109080000D03*
X99000000Y-109080000D03*
X96460000Y-111620000D03*
X99000000Y-111620000D03*
X96460000Y-114160000D03*
X99000000Y-114160000D03*
X96460000Y-116700000D03*
X99000000Y-116700000D03*
X96460000Y-119240000D03*
X99000000Y-119240000D03*
%TD*%
M02*
